<?xml version="1.0" standalone="no"?>
<!DOCTYPE svg PUBLIC "-//W3C//DTD SVG 1.0//EN" "http://www.w3.org/TR/2001/REC-SVG-20010904/DTD/svg10.dtd">
<svg xmlns="http://www.w3.org/2000/svg" xmlns:xlink="http://www.w3.org/1999/xlink" id="body_1" width="1486" height="1486">

<defs>
        <clipPath  id="1">

            <path clip-rule="evenodd" d="M0 0L1920 0L1920 1920L0 1920L0 0z" />        </clipPath>
                <clipPath  id="2">

                    <path clip-rule="evenodd" d="M0 1920L1920 1920L1920 0L0 0L0 1920z" />                </clipPath>
</defs>

<g transform="matrix(0.7199613 0 0 0.7199613 0 0)">
	<g transform="matrix(1.3333333 0 -0 -1.3333333 -248 2312)" clip-path="url(#1)" >
		<g>
			<g clip-path="url(#2)" >
				<g transform="matrix(1 0 0 1 1705.042 959.9703)">
                    <path d="M0 0C 0 -411.475 -333.567 -745.042 -745.042 -745.042C -1156.517 -745.042 -1490.084 -411.475 -1490.084 0C -1490.084 411.475 -1156.517 745.042 -745.042 745.042C -333.567 745.042 0 411.475 0 0" stroke="none" fill="#FFFFFF" fill-rule="nonzero" />
				</g>
				<g transform="matrix(1 0 0 1 1731.461 1014.1367)">
                    <path d="M0 0C -7.026 100.163 -32.9 196.49 -76.864 286.321C -122.408 379.312 -185.457 461.21002 -264.223 529.64404C -335.818 591.843 -416.867 639.788 -505.146 672.13104C -590.41 703.39105 -679.89 719.22705 -771.096 719.22705L-771.096 719.22705L-771.183 719.22705C -995.423 719.22705 -1208.3049 622.2261 -1355.242 453.10306C -1423.704 374.30707 -1474.693 284.41806 -1506.802 185.95306C -1537.8 90.883064 -1549.947 -8.1089325 -1542.922 -108.27194C -1535.897 -208.43394 -1510.052 -304.76294 -1466.058 -394.59296C -1420.514 -487.58395 -1357.466 -569.483 -1278.699 -637.91595C -1207.105 -700.1149 -1126.0549 -748.05896 -1037.747 -780.40393C -952.483 -811.6649 -863.00397 -827.49994 -771.76794 -827.49994C -547.5299 -827.49994 -334.61694 -730.4979 -187.68097 -561.3739C -119.21897 -482.5779 -68.22997 -392.68988 -36.119965 -294.2239C -5.123 -199.155 7.025 -100.164 0 0M-1236.58 -589.444C -1532.209 -332.56998 -1563.646 115.32306 -1306.77 410.953C -1166.5651 572.349 -969.372 655.00903 -771.154 655.00903C -606.245 655.03705 -440.63498 597.84406 -306.37198 481.17203C -10.713989 224.29703 20.723022 -223.59598 -236.15298 -519.255C -376.357 -680.622 -573.55 -763.281 -771.76794 -763.281C -936.67694 -763.281 -1102.3169 -706.116 -1236.58 -589.444" stroke="none" fill="#1B4D3A" fill-rule="nonzero" />
				</g>
				<g transform="matrix(1 0 0 1 660.4349 1259.7733)">
                    <path d="M0 0C -79.469 -79.441 -123.228 -185.135 -123.228 -297.562C -123.228 -407.237 -81.547 -510.503 -5.677994 -589.328L-5.677994 -589.328L31.552006 -551.861C -30.557995 -486.062 -68.63899 -397.37402 -68.63899 -299.75702C -68.63899 -97.002014 95.74301 67.43698 298.498 67.43698C 395.236 67.43698 483.193 30.00098 548.787 -31.14402L548.787 -31.14402L587.306 7.639C 508.775 82.278 406.358 123.257 297.59 123.257C 185.193 123.257 79.497 79.468 0 0" stroke="none" fill="#1B4D3A" fill-rule="nonzero" />
				</g>
				<g transform="matrix(1 0 0 1 1326.1361 960.0089)">
                    <path d="M0 0C 0 -202.785 -164.411 -367.196 -367.195 -367.196C -463.26102 -367.196 -550.719 -330.25702 -616.13904 -269.872L-616.13904 -269.872L-653.28204 -307.25C -575.33606 -379.168 -474.73505 -418.566 -368.10306 -418.566C -255.73506 -418.566 -150.06906 -374.83502 -70.571045 -295.36603C 8.926956 -215.86803 52.68596 -110.20303 52.68596 2.2239685C 52.68596 109.85097 12.556957 211.27097 -60.590042 289.42197L-60.590042 289.42197L-99.022 250.757C -37.612 185.133 0 96.942 0 0" stroke="none" fill="#8F2D1E" fill-rule="nonzero" />
				</g>
				<g transform="matrix(1 0 0 1 317.2528 973.1451)">
                    <path d="M0 0C 0 0 35.621 6.498 44.461 -67.38C 44.461 -67.38 51.34 -155.28 91.76199 -246.719C 91.76199 -246.719 38.577995 -237.52899 25.69899 -188.881C 25.69899 -188.881 -3.8350105 -112.953995 -9.536743E-06 0" stroke="none" fill="#1B4D3A" fill-rule="nonzero" />
				</g>
				<g transform="matrix(1 0 0 1 398.9697 1154.2155)">
                    <path d="M0 0C 0 0 -35.212 36.177 35.855 74.551C 35.855 74.551 56.549 -3.425 0 0" stroke="none" fill="#1B4D3A" fill-rule="nonzero" />
				</g>
				<g transform="matrix(1 0 0 1 466.7268 738.6135)">
                    <path d="M0 0C 0 0 39.837 -85.002 87.02 -132.068C 87.02 -132.068 130.36899 -168.013 103.001 -210.923C 103.001 -210.923 25.64 -147.31801 -14.958 -69.07901C -38.959 -22.803 0 0 0 0" stroke="none" fill="#1B4D3A" fill-rule="nonzero" />
				</g>
				<g transform="matrix(1 0 0 1 438.3525 661.7184)">
                    <path d="M0 0C 0 0 43.026 -76.924 118.017 -143.073C 118.017 -143.073 65.858 -156.977 33.778 -118.194C 33.778 -118.194 -24.792 -61.585 -68.581 42.617004C -68.581 42.617004 -38.93 63.398003 0 3.8146973E-06" stroke="none" fill="#1B4D3A" fill-rule="nonzero" />
				</g>
				<g transform="matrix(1 0 0 1 424.9644 729.0342)">
                    <path d="M0 0C 0 0 -43.671 90.151 -47.799 178.196C -50.228 230.267 -5.299 234.687 -5.299 234.687C -5.299 234.687 -4.6829996 140.818 18.469 78.326004C 18.469 78.326 42.792 27.543 0 0" stroke="none" fill="#1B4D3A" fill-rule="nonzero" />
				</g>
				<g transform="matrix(1 0 0 1 361.2931 1192.9059)">
                    <path d="M0 0C 0 0 41.095 -10.451 17.181 -80.904C 17.181 -80.904 3.4829998 -120.156 -3.922001 -218.884C -3.922001 -218.884 -47.945 -187.623 -38.579002 -138.185C -38.579002 -138.185 -36.354004 -101.187996 -3.8146973E-06 0" stroke="none" fill="#1B4D3A" fill-rule="nonzero" />
				</g>
				<g transform="matrix(1 0 0 1 372.8983 969.506)">
                    <path d="M0 0C 0 0 -6.908 54.296 14.02 138.096C 26.635 188.64499 76.716 170.70299 76.716 170.70299C 76.716 170.70299 56.521004 129.05199 50.462006 62.695984C 50.462006 62.695984 50.462006 6.379982 3.8146973E-06 -1.5258789E-05" stroke="none" fill="#1B4D3A" fill-rule="nonzero" />
				</g>
				<g transform="matrix(1 0 0 1 1600.925 973.1451)">
                    <path d="M0 0C 0 0 -35.652 6.498 -44.491 -67.38C -44.491 -67.38 -51.341 -155.28 -91.762 -246.719C -91.762 -246.719 -38.579002 -237.52899 -25.700005 -188.881C -25.700005 -188.881 3.8339958 -112.953995 -3.8146973E-06 0" stroke="none" fill="#1B4D3A" fill-rule="nonzero" />
				</g>
				<g transform="matrix(1 0 0 1 1519.2081 1154.2155)">
                    <path d="M0 0C 0 0 35.211 36.177 -35.856 74.551C -35.856 74.551 -56.55 -3.425 0 0" stroke="none" fill="#1B4D3A" fill-rule="nonzero" />
				</g>
				<g transform="matrix(1 0 0 1 1451.4474 738.6135)">
                    <path d="M0 0C 0 0 -39.837 -85.002 -87.021 -132.068C -87.021 -132.068 -130.37 -168.013 -103.032005 -210.923C -103.032005 -210.923 -25.641006 -147.31801 14.926994 -69.07901C 38.958 -22.803 0 0 0 0" stroke="none" fill="#1B4D3A" fill-rule="nonzero" />
				</g>
				<g transform="matrix(1 0 0 1 1479.8137 661.7184)">
                    <path d="M0 0C 0 0 -43.027 -76.924 -117.989 -143.073C -117.989 -143.073 -65.828995 -156.977 -33.779 -118.194C -33.779 -118.194 24.821 -61.585 68.58 42.617004C 68.58 42.617 38.929 63.398 0 0" stroke="none" fill="#1B4D3A" fill-rule="nonzero" />
				</g>
				<g transform="matrix(1 0 0 1 1493.2108 729.0342)">
                    <path d="M0 0C 0 0 43.67 90.151 47.798 178.196C 50.227 230.267 5.2980003 234.687 5.2980003 234.687C 5.2980003 234.687 4.682 140.818 -18.47 78.326004C -18.47 78.326004 -42.793 27.543003 0 7.6293945E-06" stroke="none" fill="#1B4D3A" fill-rule="nonzero" />
				</g>
				<g transform="matrix(1 0 0 1 1556.8848 1192.9059)">
                    <path d="M0 0C 0 0 -41.096 -10.451 -17.211 -80.904C -17.211 -80.904 -3.4840002 -120.156 3.9209995 -218.884C 3.9209995 -218.884 47.915 -187.623 38.547997 -138.185C 38.547997 -138.185 36.352997 -101.187996 -3.8146973E-06 0" stroke="none" fill="#1B4D3A" fill-rule="nonzero" />
				</g>
				<g transform="matrix(1 0 0 1 1545.276 969.506)">
                    <path d="M0 0C 0 0 6.908 54.296 -14.021 138.096C -26.636 188.64499 -76.716995 170.70299 -76.716995 170.70299C -76.716995 170.70299 -56.521996 129.05199 -50.462997 62.695984C -50.462997 62.695984 -50.490997 6.379982 3.8146973E-06 -1.5258789E-05" stroke="none" fill="#1B4D3A" fill-rule="nonzero" />
				</g>
				<g transform="matrix(1 0 0 1 507.8488 962.6976)">
                    <path d="M0 0C 0 248.504 202.169 450.644 450.644 450.644C 570.594 450.644 679.713 403.57703 760.557 326.889L760.557 326.889L770.685 337.133C 729.999 375.82898 683.255 406.475 631.592 428.34C 574.282 452.576 513.399 464.869 450.64398 464.869C 387.88898 464.869 327.03598 452.576 269.69598 428.34C 214.346 404.924 164.645 371.409 121.939 328.704C 79.263 286.028 45.749 236.298 22.332 180.947C -1.903 123.637 -14.197 62.755 -14.197 0C -14.197 -62.757 -1.9029999 -123.639 22.332 -180.949C 44.754 -233.92801 76.423996 -281.726 116.554 -323.173L116.554 -323.173L126.681 -312.958C 48.296 -231.822 0 -121.444 0 0" stroke="none" fill="#1B4D3A" fill-rule="nonzero" />
				</g>
				<g transform="matrix(1 0 0 1 1386.8337 1143.65)">
                    <path d="M0 0C -21.455 50.696 -51.369 96.62 -89.041 136.807L-89.041 136.807L-99.197 126.564C -23.855 45.983 22.332 -62.199 22.332 -180.949C 22.332 -429.45502 -179.837 -631.593 -428.341 -631.593C -545.568 -631.593 -652.493 -586.60504 -732.752 -512.96204L-732.752 -512.96204L-742.879 -523.205C -703.48206 -559.47205 -658.63904 -588.392 -609.28906 -609.29004C -551.94904 -633.52606 -491.09607 -645.81903 -428.34106 -645.81903C -365.58606 -645.81903 -304.70306 -633.526 -247.39307 -609.29004C -192.01407 -585.87506 -142.31306 -552.359 -99.60707 -509.65503C -56.931072 -466.97903 -23.417068 -417.24704 -6.866455E-05 -361.898C 24.234932 -304.586 36.52893 -243.70502 36.52893 -180.949C 36.529 -118.194 24.235 -57.311 0 0" stroke="none" fill="#8F2D1E" fill-rule="nonzero" />
				</g>
				<g transform="matrix(1 0 0 1 1157.2166 890.7007)">
                    <path d="M0 0C 20.317 63.347 -5.312 94.466 -84.928 82.245C -95.705 98.823 -113.006 111.148 -133.96701 115.041C -147.70801 117.619 -161.27 116.228 -173.49101 111.741C -168.335 115.298996 -161.167 118.701996 -151.18901 120.97099C -173.156 130.974 -196.59201 151.59999 -216.90901 196.48799C -206.725 206.234 -184.475 169.18399 -184.475 169.18399C -151.112 283.84 -244.703 333.136 -251.27701 334.812L-251.27701 334.812L-254.06201 335.586L-254.03601 335.792C -254.03601 335.792 -265.277 348.70898 -270.872 360.748C -280.07602 347.162 -275.384 339.529 -275.384 339.529L-275.384 339.529L-340.433 293.198L-341.33603 268.937L-323.93304 262.77502L-307.94705 281.82904C -284.74304 267.03003 -263.29205 276.59503 -263.29205 276.59503C -290.67307 250.96603 -304.75006 217.83603 -304.75006 217.83603C -329.81107 207.13702 -337.75208 179.80803 -339.04205 168.07603L-339.04205 168.07603L-338.86105 168.10103C -338.86105 168.10103 -339.40204 164.44102 -339.32504 158.92203L-339.32504 158.92203L-339.29904 158.46002L-339.32504 158.46002C -339.11905 148.89302 -336.97903 134.09502 -326.92404 122.93002C -326.92404 122.93002 -343.96603 135.20302 -347.13705 159.92802L-347.13705 159.92802L-391.09607 168.10103C -391.09607 168.10103 -391.97308 163.33203 -399.29608 123.98703C -406.7721 83.87103 -374.9821 72.551025 -374.9821 72.551025L-374.9821 72.551025L-369.3881 103.67203C -369.3881 103.67203 -382.8721 107.82103 -381.4541 115.47903C -380.0101 123.136024 -376.9421 140.82402 -376.9421 140.82402C -376.9421 140.82402 -371.5021 140.72002 -363.3021 136.72502C -354.0471 132.23802 -341.3101 122.85302 -328.9091 103.15602L-328.9091 103.15602L-352.3971 91.70702L-357.8371 62.548023L-319.9371 40.221024C -276.8281 14.334024 -261.5651 40.427025 -261.5651 40.427025L-261.5651 40.427025L-287.9661 55.303024C -292.4781 49.346024 -301.1661 49.940025 -301.1661 49.940025L-301.1661 49.940025L-335.3801 70.232025L-333.5501 80.05402C -333.5501 80.05402 -312.7951 86.011024 -300.75412 88.97502L-300.75412 88.97502L-271.10413 97.61202L-289.90012 84.61802C -259.5801 47.38702 -176.99811 25.49802 -156.42311 27.74202C -156.42311 27.74202 -171.5061 22.81602 -185.24911 21.52702C -185.24911 21.52702 -192.13312 -4.7959805 -166.63312 -21.55598C -154.87611 -29.289982 -133.94112 -40.84098 -133.94112 -40.84098C -143.09412 -47.41498 -154.23212 -55.40798 -162.30212 -61.23398L-162.30212 -61.23398L-163.61612 -68.349976C -170.06212 -108.64897 -136.46812 -115.11998 -136.46812 -115.11998L-136.46812 -115.11998L-131.93013 -86.57898C -131.93013 -86.57898 -145.93013 -85.39198 -144.64113 -77.70998L-144.64113 -77.70998L-143.50613 -71.28898C -138.06613 -67.37098 -126.02513 -58.80998 -115.867134 -51.59198L-115.867134 -51.59198L-102.51213 -61.07898C -90.70313 -77.14198 -108.82813 -120.35398 -108.82813 -120.35398C -136.82812 -120.35398 -139.56213 -148.63698 -139.56213 -148.63698L-139.56213 -148.63698L-102.82114 -148.76598C -100.03613 -130.27997 -85.77914 -131.36298 -85.77914 -131.36298L-85.77914 -131.36298L-71.31514 -56.154976L-94.08114 -38.132977L-86.91314 -30.655975L-98.46414 -15.030975C -86.16614 -4.331975 -77.27114 10.441025 -74.04814 27.690025C -71.57314 41.045025 -72.81014 54.220024 -76.987144 66.15802C -34.755 63.888 -41.923 43.7 -52.468 6.446C -78.637 -86.166 23.229 -100.888 23.229 -100.888C -19.544 -73.713 0 0 0 0" stroke="none" fill="#1B4D3A" fill-rule="nonzero" />
				</g>
				<g transform="matrix(1 0 0 1 559.8238 1308.7417)">
                    <path d="M0 0C -7.816 -13.933 -20.109 -31.028 -30.91 -46.014C -39.808 -58.364998 -53.506 -61.059 -65.215 -52.657L-65.215 -52.657L-117.812996 -14.812C -129.521 -6.3810005 -131.218 7.6089993 -122.408 19.843998C -111.63699 34.829998 -99.343994 51.925 -88.601 63.749996L-88.601 63.749996L-71.712 49.816998L-96.212 15.745998C -98.875 12.058998 -98.319 8.662998 -94.631 6.0289984L-94.631 6.0289984L-83.59599 -1.9030018L-58.511993 32.929L-41.563995 20.722L-66.618996 -14.110001L-52.832996 -24.061C -49.144997 -26.696001 -45.749996 -26.139 -43.115997 -22.451L-43.115997 -22.451L-18.615997 11.591L0 0z" stroke="none" fill="#8F2D1E" fill-rule="nonzero" />
				</g>
				<g transform="matrix(1 0 0 1 549.3513 1420.4469)">
                    <path d="M0 0L60.882 -63.927L38.812 -84.913L-22.041 -20.988L-45.282 -43.116L-61.468 -26.11L7.142 39.221L23.328 22.244L0 0z" stroke="none" fill="#8F2D1E" fill-rule="nonzero" />
				</g>
				<g transform="matrix(1 0 0 1 641.1602 1489.0562)">
                    <path d="M0 0L47.827 -74.172L22.215 -90.68L-25.583 -16.509L-52.54 -33.867L-65.273 -14.138L14.372 37.202L27.075 17.474L0 0z" stroke="none" fill="#8F2D1E" fill-rule="nonzero" />
				</g>
				<g transform="matrix(1 0 0 1 727.999 1436.3076)">
                    <path d="M0 0L-46.716 101.538L-19.348 114.124L27.368 12.586L0 0z" stroke="none" fill="#8F2D1E" fill-rule="nonzero" />
				</g>
				<g transform="matrix(1 0 0 1 784.1276 1553.1312)">
                    <path d="M0 0C -4.976 -1.494 -6.732 -4.566 -5.416 -8.929L-5.416 -8.929L-0.8789997 -23.945L38.666 -11.973L44.783 -32.139L5.239002 -44.111L18.264002 -87.050995L-10.888998 -95.88899L-36.382996 -11.708992C -40.656998 2.3990078 -33.367996 14.605007 -18.791996 19.025007C -1.7279968 24.177008 17.942005 30.147007 32.929005 32.66501L32.929005 32.66501L37.817005 11.473009L0 0z" stroke="none" fill="#8F2D1E" fill-rule="nonzero" />
				</g>
				<g transform="matrix(1 0 0 1 878.0732 1510.9553)">
                    <path d="M0 0L-3.513 -27.134L-34.423 -30.735L-16.012001 75.895996C -15.455001 80.871994 -11.620001 84.413994 -6.7910013 84.96999L-6.7910013 84.96999L21.191998 88.21999C 26.020998 88.774994 30.556997 86.229996 32.401997 81.54499L32.401997 81.54499L74.668 -18.06L43.759 -21.631L34.099 3.98L0 0zM15.542 52.833C 14.313 56.432 12.849 60.5 12.088 64.189L12.088 64.189L7.756 63.662C 7.552 59.886 7.229 55.612 6.849 51.837L6.849 51.837L3.073 22.537003L25.933 25.200003z" stroke="none" fill="#8F2D1E" fill-rule="nonzero" />
				</g>
				<g transform="matrix(1 0 0 1 1060.6254 1538.9607)">
                    <path d="M0 0C -4.128 -45.311 -18.353 -56.727 -55.292 -53.331C -91.909 -49.994003 -103.968 -36.209 -99.841 9.101997C -95.685005 54.441998 -81.313 65.798996 -44.696003 62.461998C -7.786 59.096 4.156 45.309 0 0zM-64.395 -55.118C -49.437996 -62.171 -33.572998 -66.708 -14.459995 -71.216L-14.459995 -71.216L-24.528996 -96.007C -44.841995 -88.456 -60.559994 -79.060005 -72.385994 -69.517006zM-68.05399 6.2039986C -70.57099 -21.193 -67.204994 -28.833 -53.183994 -30.121002C -38.958992 -31.409002 -34.450996 -24.500002 -31.933994 2.8979988C -29.416994 30.321999 -32.636993 37.933 -46.832993 39.25C -60.852993 40.509 -65.565994 33.631 -68.05399 6.2039986" stroke="none" fill="#8F2D1E" fill-rule="nonzero" />
				</g>
				<g transform="matrix(1 0 0 1 1184.5299 1443.9789)">
                    <path d="M0 0C -11.475 0.322 -21.338 2.633 -37.086 8.547C -70.6 21.074 -77.567 39.954 -62.609 79.82C -47.682 119.714005 -30.061 129.374 3.4529953 116.817C 19.082996 110.962 26.108995 107.128 35.093994 100.631L35.093994 100.631L25.142 80.522C 14.927 84.677 8.313 87.312004 -5.619999 92.552C -18.059998 97.206 -23.943998 92.141 -32.753998 68.638C -41.564 45.135002 -40.451996 37.465 -28.011997 32.782C -13.288998 27.278002 -4.595997 24.205002 5.5020027 21.629002L5.5020027 21.629002L0 0z" stroke="none" fill="#8F2D1E" fill-rule="nonzero" />
				</g>
				<g transform="matrix(1 0 0 1 1236.3174 1446.38)">
                    <path d="M0 0C -2.313 -3.895 -1.464 -7.23 3.015 -9.865L3.015 -9.865L35.621 -29.183L25.230999 -49.556C 10.595999 -43.146 -5.0060005 -33.926 -19.934002 -25.086C -34.569 -16.422 -37.261 -3.1620007 -29.827002 9.365L-29.827002 9.365L14.781 84.766L41.007 69.281L0 0z" stroke="none" fill="#8F2D1E" fill-rule="nonzero" />
				</g>
				<g transform="matrix(1 0 0 1 1368.5336 1362.6229)">
                    <path d="M0 0C -23.036 -26.11 -40.599 -27.661 -65.741 -5.474C -92.729 18.293999 -93.95799 36.47 -70.922 62.578003L-70.922 62.578003L-26.987999 112.368004L-4.157 92.229L-48.091 42.44C -60.736 28.098 -61.263 21.659998 -51.545 13.082998C -41.828 4.506998 -35.475998 5.8239985 -22.831999 20.137999L-22.831999 20.137999L21.103 69.926L43.934 49.788L0 0z" stroke="none" fill="#8F2D1E" fill-rule="nonzero" />
				</g>
				<g transform="matrix(1 0 0 1 1435.6501 1296.7773)">
                    <path d="M0 0C 9.278 -14.9 4.654 -26.022 -9.63 -36.677C -28.041 -50.433 -40.159 -44.490997 -56.522 -22.568998C -70.19 -4.244999 -77.713 6.087002 -85.792 18.849L-85.792 18.849L3.776 85.672C 12.82 75.428 19.933 66.208 32.021 49.963C 50.052 25.815 51.515 13.581 33.075 -0.177C 20.225 -9.778 10.332 -10.071 0.79 0.584L0.79 0.584L0 0zM-42.589 -5.504C -35.798 -14.578001 -31.993 -15.368 -23.007 -8.695C -13.552 -1.6109996 -12.967 2.4580002 -19.934 11.825001L-19.934 11.825001L-29.036 24.03L-51.75 7.082zM-5.181 23.21C 0.7319999 15.277999 4.3019996 14.516999 12.352001 20.546999C 20.138 26.342 20.225002 30.029999 13.932001 38.489L13.932001 38.489L5.503 49.788L-14.109 35.153z" stroke="none" fill="#8F2D1E" fill-rule="nonzero" />
				</g>
				<g transform="matrix(1 0 0 1 687.7166 490.6085)">
                    <path d="M0 0C 0.73 1.137 1.636 2.076 2.715 2.818C 3.7929997 3.559 4.957 4.076 6.205 4.3640003C 7.4519997 4.6520004 8.71 4.6920004 9.981 4.478C 11.25 4.2650003 12.473 3.7810001 13.652 3.0230002C 14.7890005 2.2920003 15.729 1.3870002 16.470001 0.30700016C 17.211 -0.77199984 17.710001 -1.9379997 17.966002 -3.1929998C 18.221 -4.448 18.246002 -5.7269998 18.041002 -7.031C 17.835003 -8.333 17.366003 -9.554 16.636002 -10.691C 15.905002 -11.828 14.989001 -12.762 13.891002 -13.49C 12.790002 -14.217999 11.623002 -14.716 10.389002 -14.986C 9.154002 -15.254 7.885002 -15.285 6.583002 -15.079C 5.280002 -14.875 4.059002 -14.405001 2.923002 -13.674001C 1.744002 -12.917001 0.801002 -11.995001 0.09300208 -10.909C -0.6159979 -9.823 -1.103998 -8.663 -1.371998 -7.427C -1.6409979 -6.193 -1.6619979 -4.9309998 -1.4349979 -3.641C -1.21 -2.353 -0.732 -1.138 0 0zM-20.719 13.313C -19.987999 14.448999 -19.083 15.389999 -18.004 16.132C -16.925 16.872 -15.752 17.381 -14.483 17.658C -13.216 17.934 -11.947 17.966002 -10.677 17.752C -9.408 17.54 -8.184999 17.054 -7.006 16.297C -5.869 15.566001 -4.94 14.667001 -4.218 13.601001C -3.497 12.536001 -3.01 11.374001 -2.7529998 10.119C -2.4979997 8.865001 -2.4729998 7.5850005 -2.6779997 6.2830005C -2.884 4.981 -3.353 3.76 -4.083 2.623C -4.814 1.485 -5.73 0.552 -6.829 -0.176C -7.929 -0.904 -9.095 -1.404 -10.33 -1.672C -11.565 -1.941 -12.823 -1.978 -14.105 -1.7850001C -15.389 -1.593 -16.598 -1.1300001 -17.735 -0.40100014C -18.914001 0.35699987 -19.857 1.2779999 -20.564001 2.3649998C -21.274 3.4519997 -21.772001 4.618 -22.060001 5.8659997C -22.350002 7.113 -22.381 8.382999 -22.155 9.672999C -21.929 10.9609995 -21.45 12.174999 -20.719 13.313zM-40.084 -40.54C -42.381 -44.116 -43.394 -47.454002 -43.12 -50.558C -42.847 -53.66 -41.125 -56.229 -37.955997 -58.266C -34.421997 -60.536 -31.187998 -61.754997 -28.250998 -61.92L-28.250998 -61.92L-22.768997 -53.388C -21.358997 -51.195 -20.238997 -49.116 -19.407997 -47.153C -18.576998 -45.190998 -18.109997 -43.367 -18.002996 -41.685C -17.897997 -40.001 -18.198996 -38.459 -18.904997 -37.058002C -19.611998 -35.657 -20.797997 -34.422 -22.463997 -33.351C -24.129997 -32.280003 -25.743998 -31.689001 -27.305996 -31.574001C -28.868996 -31.460001 -30.380997 -31.737001 -31.842997 -32.405003C -33.304996 -33.072002 -34.731995 -34.108 -36.119995 -35.510002C -37.509995 -36.914 -38.830994 -38.589 -40.083996 -40.54zM-15.581999 -79.186005C -19.133 -84.711006 -23.362 -89.08301 -28.271 -92.299C -33.18 -95.517006 -38.614 -97.477005 -44.577 -98.181C -50.539 -98.883 -56.953 -98.28 -63.816 -96.366C -70.68 -94.451996 -77.829 -91.106995 -85.264 -86.328995C -92.048 -81.968994 -97.623 -77.424995 -101.989 -72.69699C -106.354996 -67.968994 -109.462 -63.08799 -111.308 -58.05699C -113.154 -53.02399 -113.707 -47.874992 -112.965 -42.61299C -112.224 -37.34899 -110.117 -32.01599 -106.644 -26.612991L-106.644 -26.612991L-97.873 -12.962992L-81.055 -23.769993L-87.515 -33.824993C -89.734 -37.27899 -91.211 -40.648994 -91.946 -43.935993C -92.68 -47.221992 -92.562 -50.455994 -91.592 -53.633995C -90.62 -56.812996 -88.758 -59.945995 -86.008 -63.034996C -83.257 -66.12299 -79.484 -69.20599 -74.691 -72.286995C -69.816 -75.42 -65.409004 -77.605995 -61.47 -78.84499C -57.531002 -80.08499 -54.068 -80.701996 -51.081 -80.69899C -48.094 -80.69499 -45.566 -80.26699 -43.497 -79.41599C -41.429 -78.562996 -39.807003 -77.62499 -38.632004 -76.60199C -41.743004 -75.63599 -45.126003 -73.97899 -48.782005 -71.62899C -52.235004 -69.40999 -55.129005 -66.83499 -57.462006 -63.89899C -59.796005 -60.96499 -61.380005 -57.73699 -62.217007 -54.21499C -63.053005 -50.69299 -63.083008 -46.94199 -62.305008 -42.96399C -61.529007 -38.98599 -59.744007 -34.82499 -56.951008 -30.47699C -54.549007 -26.73999 -51.670006 -23.50899 -48.313007 -20.786991C -44.959007 -18.064991 -41.334007 -16.088991 -37.44301 -14.856991C -33.55301 -13.626991 -29.463009 -13.2689905 -25.175009 -13.785991C -20.887009 -14.302991 -16.609009 -15.932991 -12.343009 -18.67399C -7.631009 -21.70199 -4.176009 -25.05599 -1.9770088 -28.73499C 0.22099113 -32.41699 1.4249911 -36.25999 1.6329911 -40.26799C 1.8419911 -44.27699 1.1969911 -48.38199 -0.29800892 -52.58799C -1.7950089 -56.79199 -3.8750088 -60.966988 -6.537009 -65.10999z" stroke="none" fill="#1B4D3A" fill-rule="nonzero" />
				</g>
				<g transform="matrix(1 0 0 1 726.5258 384.6242)">
                    <path d="M0 0C -1.465 -3.152 -2.916 -5.127 -4.351 -5.925C -5.7869997 -6.723 -7.424 -6.6930003 -9.2630005 -5.839L-9.2630005 -5.839L-15.175001 -3.0920002C -18.328001 -1.6260003 -21.051 0.05099964 -23.34 1.9409997C -25.631 3.8309999 -27.357 6.017 -28.519001 8.500999C -29.681002 10.983999 -30.161001 13.816999 -29.961 16.998C -29.76 20.181 -28.724 23.785 -26.852001 27.814999L-26.852001 27.814999L7.063 100.793L25.193 92.369L-7.592 21.82C -8.346 20.199999 -8.809 18.831 -8.982 17.713C -9.155001 16.595 -9.091001 15.646999 -8.787001 14.865999C -8.484 14.086999 -7.9570007 13.414999 -7.206001 12.853999C -6.456001 12.291999 -5.533001 11.756999 -4.4380007 11.247999L-4.4380007 11.247999L-1.8760006 10.056999C -1.176 9.732 -0.527 9.351 0.069 8.915C 0.665 8.478 1.086 7.895 1.334 7.169C 1.581 6.44 1.624 5.502 1.463 4.352C 1.301 3.203 0.814 1.752 0 0" stroke="none" fill="#1B4D3A" fill-rule="nonzero" />
				</g>
				<g transform="matrix(1 0 0 1 781.1605 446.9595)">
                    <path d="M0 0C 0.437 1.279 1.09 2.408 1.959 3.388C 2.829 4.365 3.846 5.141 5.011 5.7130003C 6.1740003 6.2860003 7.399 6.622 8.683001 6.7190003C 9.966001 6.8170004 11.27 6.6390004 12.596001 6.1870003C 13.875001 5.7500005 14.993001 5.102 15.950001 4.2390003C 16.906 3.3770003 17.657001 2.3670003 18.208 1.2110002C 18.756 0.05400026 19.087 -1.1819997 19.201 -2.495C 19.313 -3.809 19.151001 -5.107 18.715 -6.3859997C 18.278 -7.665 17.613 -8.792 16.721 -9.761999C 15.828001 -10.732999 14.815001 -11.496999 13.681001 -12.053999C 12.5460005 -12.610999 11.334001 -12.949999 10.044001 -13.069999C 8.752001 -13.1919985 7.4660006 -13.0339985 6.1870003 -12.595999C 4.861 -12.143999 3.7240002 -11.476999 2.7770002 -10.591999C 1.8280002 -9.706999 1.0640001 -8.693999 0.48500013 -7.551999C -0.09499985 -6.408999 -0.4299999 -5.185999 -0.51999986 -3.878999C -0.61 -2.573 -0.437 -1.28 0 0zM-18.657 -50.194C -19.499 -52.661 -19.927 -54.926 -19.942 -56.987C -19.956999 -59.049 -19.649 -60.876 -19.019 -62.468998C -18.387999 -64.061 -17.455 -65.401 -16.217999 -66.485C -14.980999 -67.571 -13.539999 -68.394 -11.894999 -68.956L-11.894999 -68.956L-3.5999985 -71.786L0.6570015 -59.309002C 1.2810016 -57.481003 1.7830015 -55.636 2.1620016 -53.777C 2.5410016 -51.915 2.6120017 -50.18 2.3710017 -48.567C 2.1300018 -46.954002 1.5140017 -45.507 0.5240017 -44.224003C -0.46799827 -42.942 -1.9919983 -41.950005 -4.0479984 -41.249004C -6.0139985 -40.578003 -7.779999 -40.372005 -9.345999 -40.628006C -10.914999 -40.884007 -12.296999 -41.458008 -13.492998 -42.351006C -14.690998 -43.243004 -15.7179985 -44.385006 -16.574999 -45.775005C -17.432999 -47.167004 -18.126999 -48.641006 -18.657 -50.194004zM-39.59 -59.506C -39.721 -58.542 -39.724 -57.433 -39.601 -56.174C -39.478 -54.914 -39.29 -53.614 -39.035004 -52.271C -38.782005 -50.93 -38.471004 -49.607 -38.103004 -48.304C -37.735004 -47.002 -37.379005 -45.847 -37.035004 -44.842003C -35.741005 -41.049004 -33.823006 -37.557003 -31.281004 -34.367004C -28.739004 -31.178005 -25.740004 -28.593004 -22.281004 -26.609005C -18.824003 -24.626005 -14.994003 -23.382006 -10.790004 -22.876005C -6.5880036 -22.372005 -2.1550035 -22.915005 2.5069962 -24.505005C 6.1629963 -25.752005 9.239996 -27.313005 11.739996 -29.186005C 14.237996 -31.059004 16.254995 -33.111004 17.788996 -35.345005C 19.322996 -37.578007 20.435995 -39.959003 21.128996 -42.492004C 21.819996 -45.024006 22.190996 -47.600006 22.241997 -50.219006C 22.291996 -52.838005 22.081997 -55.433006 21.614996 -58.002007C 21.145996 -60.573006 20.521996 -63.000008 19.741997 -65.285L19.741997 -65.285L15.320997 -78.241005L24.575996 -81.399C 25.352997 -81.664 26.060997 -81.982 26.698996 -82.353004C 27.337996 -82.72401 27.817995 -83.259 28.142996 -83.956C 28.465996 -84.653 28.595995 -85.578 28.535995 -86.731C 28.472996 -87.884 28.130995 -89.374 27.507996 -91.202C 26.384996 -94.492004 25.162996 -96.61301 23.842995 -97.566C 22.522995 -98.519005 20.879995 -98.66 18.915995 -97.990005L18.915995 -97.990005L-58.002007 -71.745C -58.778008 -71.48 -59.487007 -71.162 -60.125008 -70.791C -60.764008 -70.42 -61.244007 -69.887 -61.56801 -69.188C -61.89201 -68.493004 -62.01801 -67.556 -61.94901 -66.380005C -61.88001 -65.206 -61.52601 -63.681004 -60.88601 -61.806004C -59.76301 -58.515003 -58.55001 -56.417004 -57.24601 -55.510002C -55.94201 -54.604004 -54.30601 -54.484 -52.34101 -55.156002z" stroke="none" fill="#1B4D3A" fill-rule="nonzero" />
				</g>
				<g transform="matrix(1 0 0 1 853.5515 426.5095)">
                    <path d="M0 0C 0.29 1.32 0.811 2.515 1.565 3.587C 2.319 4.656 3.23 5.544 4.3 6.25C 5.368 6.953 6.5340004 7.428 7.7990003 7.669C 9.064 7.912 10.379 7.8830004 11.748 7.583C 13.067 7.293 14.264 6.7720003 15.335 6.018C 16.405 5.264 17.278 4.342 17.955 3.255C 18.631 2.1680002 19.098 0.977 19.36 -0.31499982C 19.62 -1.6079998 19.605001 -2.916 19.316 -4.2349997C 19.026 -5.5559998 18.492 -6.75 17.716 -7.8139997C 16.937 -8.881 16.017 -9.754 14.952999 -10.434999C 13.887999 -11.117 12.709999 -11.587999 11.417999 -11.848C 10.124 -12.108 8.816999 -12.092999 7.4969993 -11.8029995C 6.128999 -11.504 4.9239993 -10.967999 3.8829992 -10.195C 2.8399992 -9.424 1.9789991 -8.506 1.2979991 -7.441C 0.61599916 -6.377 0.15799916 -5.2019997 -0.07900083 -3.9129999C -0.316 -2.626 -0.29 -1.321 0 0zM-24.056 5.274C -23.767 6.5930004 -23.244999 7.79 -22.491 8.861C -21.737 9.93 -20.814999 10.816 -19.720999 11.516C -18.628998 12.215 -17.450998 12.687 -16.185999 12.9279995C -14.921999 13.169999 -13.605999 13.141999 -12.237999 12.841C -10.917999 12.552 -9.733999 12.033 -8.685999 11.285C -7.639999 10.536 -6.777999 9.617 -6.100999 8.53C -5.4259987 7.4419994 -4.9579988 6.252 -4.695999 4.96C -4.435999 3.665 -4.4509993 2.359 -4.7399993 1.0380001C -5.0299993 -0.28299987 -5.563999 -1.4749999 -6.340999 -2.541C -7.118999 -3.606 -8.039999 -4.48 -9.102999 -5.161C -10.166999 -5.842 -11.333999 -6.316 -12.602999 -6.581C -13.872999 -6.8459997 -15.167999 -6.8339996 -16.487999 -6.545C -17.856998 -6.245 -19.060999 -5.709 -20.102999 -4.9370003C -21.145998 -4.1650004 -22.019 -3.2450004 -22.723 -2.1750002C -23.428999 -1.1060002 -23.899 0.072999716 -24.135 1.3599999C -24.373001 2.6479998 -24.346 3.952 -24.056 5.274zM-25.2 -65.22L-15.923 -22.908L3.6049995 -27.189001L-9.426001 -86.623L-46.076004 -78.588C -46.877003 -78.411995 -47.617004 -78.175995 -48.294003 -77.878C -48.97 -77.582 -49.507004 -77.106995 -49.908 -76.45C -50.308002 -75.794 -50.539 -74.878 -50.604 -73.702995C -50.667 -72.52799 -50.487 -70.97199 -50.063 -69.037994C -49.318 -65.64099 -48.349 -63.418995 -47.155 -62.369995C -45.961998 -61.322994 -44.349 -61.020996 -42.322 -61.464996z" stroke="none" fill="#1B4D3A" fill-rule="nonzero" />
				</g>
				<g transform="matrix(1 0 0 1 953.9203 430.6244)">
                    <path d="M0 0L-9.652 -103.13L-88.19 -95.78L-86.556 -78.326L-61.892 -80.635994L-66.729996 -11.069992L-46.824997 -12.931992L-41.482 -82.54599L-27.924 -83.81399L-19.904999 1.8630142L0 0z" stroke="none" fill="#1B4D3A" fill-rule="nonzero" />
				</g>
				<g transform="matrix(1 0 0 1 987.4744 432.0687)">
                    <path d="M0 0L2.003 -103.561L-17.984 -103.948L-19.987 -0.3860016L0 0z" stroke="none" fill="#1B4D3A" fill-rule="nonzero" />
				</g>
				<g transform="matrix(1 0 0 1 1122.5985 311.436)">
                    <path d="M0 0C -0.306 1.317 -0.348 2.622 -0.126 3.912C 0.095 5.2019997 0.536 6.396 1.201 7.491C 1.864 8.586 2.714 9.514 3.752 10.275C 4.79 11.037 5.991 11.573999 7.355 11.891C 8.672 12.197 9.976 12.238999 11.267 12.017C 12.557 11.7960005 13.742001 11.34 14.819 10.647C 15.896 9.956 16.829 9.081 17.621 8.025001C 18.41 6.97 18.958 5.783 19.264 4.465C 19.569 3.148 19.599 1.842 19.355 0.546C 19.109 -0.75 18.652 -1.934 17.985 -3.006C 17.315 -4.078 16.453 -5.008 15.397 -5.8C 14.341 -6.589 13.154 -7.137 11.837 -7.443C 10.473 -7.759 9.154 -7.791 7.883 -7.542C 6.609 -7.29 5.437 -6.832 4.365 -6.163C 3.293 -5.494 2.374 -4.629 1.608 -3.568C 0.842 -2.507 0.306 -1.317 0 0zM-23.991 -5.562C -24.296999 -4.245 -24.338999 -2.9399998 -24.116999 -1.6499999C -23.895998 -0.3599999 -23.442999 0.83700013 -22.755 1.937C -22.07 3.0370002 -21.207998 3.969 -20.168 4.729C -19.132 5.491 -17.93 6.03 -16.564999 6.346C -15.247998 6.651 -13.956999 6.691 -12.687999 6.465C -11.421999 6.237 -10.2509985 5.7780004 -9.171999 5.085C -8.095999 4.395 -7.1619987 3.519 -6.370999 2.464C -5.580999 1.408 -5.032999 0.22099996 -4.7279987 -1.096C -4.421999 -2.412 -4.391999 -3.72 -4.6369987 -5.016C -4.8819985 -6.312 -5.338999 -7.495 -6.0069985 -8.568C -6.6759987 -9.639999 -7.5259986 -10.566999 -8.558998 -11.353C -9.591998 -12.138 -10.765998 -12.683 -12.082998 -12.988C -13.447998 -13.304 -14.765999 -13.337 -16.038998 -13.0859995C -17.310997 -12.8359995 -18.494997 -12.379999 -19.589998 -11.716999C -20.686998 -11.0529995 -21.616999 -10.190999 -22.382998 -9.129999C -23.149998 -8.068999 -23.685997 -6.878999 -23.990997 -5.5619993zM-51.884 47.084C -51.23 44.261 -50.094997 41.711 -48.475998 39.434998C -46.857998 37.156998 -44.594997 35.364998 -41.689 34.055996C -38.783 32.745995 -35.167 32.010994 -30.842999 31.847996C -26.517998 31.685995 -21.32 32.308994 -15.251999 33.715996C -7.959999 35.405994 -2.1659985 37.083996 2.1330013 38.749996C 6.431001 40.414997 9.658001 42.055996 11.811002 43.670998C 13.965002 45.284996 15.274002 46.852997 15.740002 48.372997C 16.205002 49.893997 16.269001 51.382996 15.930001 52.840996C 15.615002 54.205997 14.945002 55.275997 13.922001 56.055996C 12.898001 56.833996 11.648001 57.473995 10.168001 57.973995C 8.689001 58.472996 7.0320015 58.883995 5.1990013 59.201996C 3.3650012 59.519997 1.4690013 59.898994 -0.49099874 60.335995C -2.4529986 60.774994 -4.390999 61.327995 -6.304999 61.999996C -8.221999 62.670998 -9.999999 63.608997 -11.641998 64.814995C -13.284998 66.02 -14.742998 67.55299 -16.016998 69.413994C -17.291998 71.27599 -18.255999 73.617 -18.909998 76.439995C -19.760998 80.10899 -19.932999 83.948 -19.423998 87.95699C -18.915998 91.965996 -17.628998 95.770996 -15.562998 99.37299C -13.498998 102.97499 -10.599998 106.187 -6.867998 109.010994C -3.134998 111.83299 1.5280018 113.895 7.128002 115.19299C 8.962002 115.618 10.718002 115.90099 12.396002 116.04099C 14.073002 116.18199 15.628002 116.257996 17.065002 116.26899C 18.499002 116.27799 19.802002 116.22099 20.971003 116.09699C 22.141003 115.96999 23.111002 115.84899 23.881002 115.729996L23.881002 115.729996L27.906 98.372C 24.193 98.353 21.05 98.17 18.478 97.822C 15.907 97.473 13.939 97.141 12.575 96.826C 9.987 96.225 7.824 95.401 6.084 94.354C 4.344 93.305 2.962 92.155 1.94 90.903C 0.916 89.649 0.253 88.342 -0.051 86.983C -0.356 85.622 -0.367 84.332 -0.083 83.11C 0.244 81.698 0.939 80.569 2.002 79.726C 3.064 78.881 4.353 78.19 5.868 77.648C 7.38 77.107 9.074 76.644005 10.948 76.261C 12.821 75.878 14.747 75.48 16.726 75.072C 18.704 74.661995 20.654 74.160995 22.578 73.566C 24.5 72.97 26.273998 72.155 27.903 71.12C 29.53 70.084 30.963 68.769005 32.202 67.172005C 33.439 65.574005 34.331 63.601006 34.875 61.248005C 35.858 57.014004 35.927002 52.756004 35.086 48.472004C 34.246 44.186 32.111 40.085 28.681 36.168C 25.252 32.249 20.308 28.612 13.849 25.257C 7.389 21.9 -0.945 19.038 -11.152 16.672C -20.231 14.567001 -28.234001 13.705001 -35.162003 14.080001C -42.091003 14.458001 -48.021004 15.821001 -52.952003 18.173C -57.885002 20.524 -61.845 23.707 -64.833 27.723999C -67.821 31.739998 -69.921 36.36 -71.131 41.581L-71.131 41.581L-74.795 57.388L-55.32 61.902z" stroke="none" fill="#1B4D3A" fill-rule="nonzero" />
				</g>
				<g transform="matrix(1 0 0 1 1228.4744 404.8563)">
                    <path d="M0 0C 1 -2.408 1.559 -4.857 1.677 -7.343C 1.7950001 -9.830999 1.3770001 -12.226 0.42500007 -14.528999C -0.5259999 -16.835 -2.0679998 -18.976 -4.199 -20.959C -6.331 -22.942 -9.135 -24.656 -12.612999 -26.099998L-12.612999 -26.099998L-46.731 -40.265L-53.453 -24.076L-25.890999 -12.633C -23.706999 -11.725 -22.092999 -10.795 -21.050999 -9.839001C -20.009998 -8.885 -19.72 -7.8480005 -20.182999 -6.7330008C -20.423998 -6.1550007 -20.744 -5.607001 -21.14 -5.0910006C -21.536999 -4.5780005 -22.212 -3.9570007 -23.168 -3.2280006C -24.125 -2.5010006 -25.47 -1.5570006 -27.206999 -0.3950007C -28.943998 0.7659993 -31.272999 2.2819993 -34.194 4.1549997L-34.194 4.1549997L-52.243 16.269001L-40.069 33.794L-19.51 19.035C -16.75 17.044 -14.287001 15.205 -12.121 13.516C -9.956 11.826 -8.077 10.226 -6.4820004 8.719999C -4.889 7.211 -3.563 5.749 -2.504 4.333C -1.446 2.916 -0.61 1.471 0 0" stroke="none" fill="#1B4D3A" fill-rule="nonzero" />
				</g>
				<g transform="matrix(1 0 0 1 1283.3744 422.4731)">
                    <path d="M0 0C 1.632 -3.07 2.335 -5.418 2.106 -7.043C 1.877 -8.67 0.869 -9.958 -0.922 -10.911L-0.922 -10.911L-6.677 -13.974C -9.746 -15.608 -12.725 -16.77 -15.614 -17.459C -18.501 -18.147 -21.286 -18.206999 -23.969 -17.637C -26.651 -17.068998 -29.201 -15.745999 -31.619999 -13.667999C -34.038998 -11.591 -36.291 -8.592999 -38.378 -4.669999L-38.378 -4.669999L-76.184 66.372L-58.535995 75.763L-21.988995 7.088997C -21.147995 5.509997 -20.335995 4.3169966 -19.547995 3.5039968C -18.760994 2.6919968 -17.964994 2.1719968 -17.158995 1.9449968C -16.353994 1.7179968 -15.500995 1.7329968 -14.600994 1.9939969C -13.7009945 2.2539968 -12.716994 2.667997 -11.649994 3.2349968L-11.649994 3.2349968L-9.156994 4.562997C -8.475994 4.925997 -7.779994 5.213997 -7.0729938 5.424997C -6.3659935 5.6379967 -5.6469936 5.622997 -4.9159937 5.382997C -4.187 5.142 -3.412 4.612 -2.592 3.79C -1.772 2.967 -0.907 1.704 0 0" stroke="none" fill="#1B4D3A" fill-rule="nonzero" />
				</g>
				<g transform="matrix(1 0 0 1 1292.0739 438.0218)">
                    <path d="M0 0L-23.162 36.604L-6.268 47.293L26.266 -4.123L-5.44 -24.186C -6.133 -24.624 -6.825 -24.976002 -7.5150003 -25.242C -8.204 -25.507 -8.9210005 -25.546001 -9.669001 -25.361C -10.413001 -25.177 -11.223001 -24.688 -12.094001 -23.896C -12.966001 -23.105999 -13.932001 -21.874 -14.991001 -20.201C -16.849 -17.262001 -17.724 -15.002001 -17.613 -13.415001C -17.5 -11.832001 -16.568 -10.484001 -14.814001 -9.374001L-14.814001 -9.374001L0 0zM-36.889 58.431C -37.612 59.574 -38.083 60.791 -38.3 62.083C -38.516 63.373 -38.483997 64.653 -38.197998 65.918C -37.913998 67.184 -37.407997 68.348 -36.677998 69.409C -35.949997 70.46999 -34.993996 71.37399 -33.809998 72.12399C -32.669 72.84699 -31.460999 73.30999 -30.189999 73.51399C -28.918999 73.718994 -27.661999 73.67099 -26.414999 73.37499C -25.169998 73.07599 -24 72.55899 -22.904999 71.82399C -21.811998 71.08699 -20.901999 70.14799 -20.178999 69.00599C -19.456 67.86299 -18.995998 66.63999 -18.8 65.33599C -18.604 64.03099 -18.644 62.762993 -18.92 61.53099C -19.198 60.29699 -19.695 59.14099 -20.411 58.05899C -21.126999 56.97599 -22.055 56.07499 -23.198 55.35199C -24.382 54.60399 -25.615 54.13699 -26.898 53.95399C -28.183 53.769993 -29.451 53.80899 -30.703001 54.07399C -31.957 54.33799 -33.119 54.84599 -34.194 55.59399C -35.268 56.34299 -36.166 57.28899 -36.889 58.430992" stroke="none" fill="#1B4D3A" fill-rule="nonzero" />
				</g>
				<g transform="matrix(1 0 0 1 869.0859 721.0398)">
                    <path d="M0 0L0 -73.509L-14.211 -73.509L-14.211 -14.213001L-22.543 -14.213001L-22.543 0L0 0z" stroke="none" fill="#1B4D3A" fill-rule="nonzero" />
				</g>
				<g transform="matrix(1 0 0 1 913.3779 695.606)">
                    <path d="M0 0C 0 -2.581 0.931 -4.804 2.793 -6.665C 4.6219997 -8.495 6.8269997 -9.41 9.409 -9.41C 11.989 -9.41 14.194 -8.495 16.024 -6.665C 17.887001 -4.804 18.818 -2.5809999 18.818 0L18.818 0L18.818 3.331C 18.818 5.912 17.887001 8.117 16.024 9.9470005C 14.194 11.776001 11.989 12.691 9.409 12.691C 6.8270006 12.691 4.622 11.776 2.7930002 9.9470005C 0.931 8.117 0 5.912 0 3.331L0 3.331L0 0zM-11.614 -36.755L0.6859999 -29.649002C 2.9069998 -33.471 5.815 -35.383003 9.408999 -35.383003C 11.988999 -35.383003 14.193999 -34.469 16.023998 -32.639004C 17.887 -30.776003 18.817999 -28.571003 18.817999 -26.023003L18.817999 -26.023003L18.817999 -21.661003C 15.811998 -22.968002 12.675999 -23.621002 9.4089985 -23.621002C 2.9069986 -23.621002 -2.6460018 -21.318003 -7.253002 -16.711002C -11.893002 -12.073002 -14.212002 -6.503002 -14.212002 -1.9073486E-06L-14.212002 -1.9073486E-06L-14.212002 3.3309982C -14.212002 9.831998 -11.893002 15.387999 -7.2530017 19.993998C -2.6460018 24.632998 2.9069982 26.952997 9.4089985 26.952997C 15.909998 26.952997 21.463999 24.632998 26.071 19.993998C 30.709 15.387998 33.029 9.831998 33.029 3.3309975L33.029 3.3309975L33.029 -26.023003C 33.029 -32.491 30.709 -38.047005 26.071 -42.685005C 21.463999 -47.292004 15.909999 -49.594006 9.4089985 -49.594006C 0.3919983 -49.594006 -6.616001 -45.315006 -11.614002 -36.755005" stroke="none" fill="#1B4D3A" fill-rule="nonzero" />
				</g>
				<g transform="matrix(1 0 0 1 1000.0085 721.0398)">
                    <path d="M0 0L-19.161 -41.949L-7.0059996 -41.949L-7.0059996 -24.601002L7.2040005 -24.601002L7.2040005 -41.949L12.743 -41.949L12.743 -56.162L7.204 -56.162L7.204 -73.509L-7.006 -73.509L-7.006 -56.162003L-37.635 -56.162003L-37.635 -48.173004L-15.631 0L0 0z" stroke="none" fill="#1B4D3A" fill-rule="nonzero" />
				</g>
				<g transform="matrix(1 0 0 1 1027.983 658.8507)">
                    <path d="M0 0L12.3 7.106C 14.555 3.284 17.461 1.3730001 21.024 1.3730001C 23.604 1.3730001 25.809 2.2860003 27.639 4.116C 29.501 5.979 30.433 8.184 30.433 10.733L30.433 10.733L30.433 14.114C 30.433 16.694 29.501001 18.9 27.639 20.73C 25.809 22.559 23.604 23.473999 21.024 23.473999C 17.232 23.473999 14.325001 21.514 12.3 17.593998L12.3 17.593998L1.666 20.485L6.272 62.189L40.821 62.189L40.821 47.976L19.113 47.976L18.131 37.539C 19.243 37.669003 20.206001 37.735 21.024 37.735C 27.524 37.735 33.095 35.415 37.734 30.776001C 42.373 26.169 44.693 20.615002 44.693 14.114L44.693 14.114L44.693 10.733C 44.693 4.264 42.373 -1.2910004 37.734 -5.9300003C 33.095 -10.536 27.524002 -12.839001 21.024002 -12.839001C 12.006 -12.839 4.999 -8.56 0 0" stroke="none" fill="#1B4D3A" fill-rule="nonzero" />
				</g>
			</g>
		</g>
	</g>
</g>
</svg>